<svg xmlns="http://www.w3.org/2000/svg" viewBox="0 0 64 64">
  <defs>
    <linearGradient id="bg" x1="0%" y1="0%" x2="100%" y2="100%">
      <stop offset="0%" stop-color="#0b8c9e" />
      <stop offset="100%" stop-color="#d66a2a" />
    </linearGradient>
  </defs>
  <rect width="64" height="64" rx="18" fill="url(#bg)" />
  <path d="M18 39c2-7 8-11 14-11 5 0 9 2 11 6 5 0 9 3 9 9 0 7-5 11-12 11H24c-8 0-12-5-12-12 0-5 3-9 6-11z" fill="#f7fbff" opacity=".96" />
  <path d="M24 24c2-7 8-12 16-12 8 0 13 4 16 11 5 1 8 5 8 10 0 6-4 10-10 10h-6" fill="#f7fbff" opacity=".45" />
  <circle cx="28" cy="42" r="2.5" fill="#102539" />
  <circle cx="36" cy="42" r="2.5" fill="#102539" />
  <circle cx="44" cy="42" r="2.5" fill="#102539" />
</svg>
