<svg width="1440" height="1040" viewBox="0 0 1440 1040" fill="none" xmlns="http://www.w3.org/2000/svg">
  <defs>
    <linearGradient id="bg" x1="180" y1="40" x2="1260" y2="960" gradientUnits="userSpaceOnUse">
      <stop stop-color="#0D1B2F"/>
      <stop offset="1" stop-color="#060D18"/>
    </linearGradient>
    <linearGradient id="panel" x1="230" y1="160" x2="1180" y2="910" gradientUnits="userSpaceOnUse">
      <stop stop-color="#12233A"/>
      <stop offset="1" stop-color="#08111D"/>
    </linearGradient>
    <linearGradient id="accent" x1="0" y1="0" x2="720" y2="0" gradientUnits="userSpaceOnUse">
      <stop stop-color="#21D2FF"/>
      <stop offset="1" stop-color="#5CF3C7"/>
    </linearGradient>
    <linearGradient id="warm" x1="0" y1="0" x2="280" y2="0" gradientUnits="userSpaceOnUse">
      <stop stop-color="#FF8E38"/>
      <stop offset="1" stop-color="#FFBC5E"/>
    </linearGradient>
  </defs>
  <rect width="1440" height="1040" rx="36" fill="url(#bg)"/>
  <rect x="62" y="62" width="1316" height="916" rx="28" fill="rgba(255,255,255,0.02)" stroke="rgba(163,191,225,0.16)"/>
  <rect x="116" y="116" width="1208" height="808" rx="26" fill="url(#panel)"/>
  <rect x="116" y="116" width="1208" height="72" rx="26" fill="rgba(255,255,255,0.03)"/>
  <circle cx="168" cy="151" r="8" fill="#5E728D"/>
  <circle cx="196" cy="151" r="8" fill="#5E728D"/>
  <circle cx="224" cy="151" r="8" fill="#5E728D"/>
  <rect x="274" y="138" width="194" height="26" rx="13" fill="rgba(255,255,255,0.05)"/>
  <rect x="290" y="146" width="98" height="10" rx="5" fill="rgba(255,255,255,0.14)"/>
  <rect x="1066" y="136" width="214" height="30" rx="15" fill="rgba(33,210,255,0.10)" stroke="rgba(33,210,255,0.28)"/>
  <rect x="1086" y="147" width="116" height="8" rx="4" fill="#8FEAFF"/>
  <rect x="166" y="234" width="408" height="188" rx="24" fill="rgba(255,255,255,0.03)" stroke="rgba(163,191,225,0.12)"/>
  <rect x="198" y="270" width="134" height="16" rx="8" fill="rgba(255,255,255,0.15)"/>
  <rect x="198" y="304" width="102" height="74" rx="18" fill="rgba(33,210,255,0.10)" stroke="rgba(33,210,255,0.28)"/>
  <rect x="316" y="304" width="102" height="74" rx="18" fill="rgba(255,255,255,0.04)"/>
  <rect x="434" y="304" width="102" height="74" rx="18" fill="rgba(255,255,255,0.04)"/>
  <rect x="228" y="332" width="44" height="10" rx="5" fill="#9AECFF"/>
  <rect x="336" y="330" width="56" height="14" rx="7" fill="rgba(255,255,255,0.22)"/>
  <rect x="454" y="330" width="56" height="14" rx="7" fill="rgba(255,255,255,0.22)"/>
  <rect x="198" y="454" width="172" height="12" rx="6" fill="rgba(255,255,255,0.14)"/>
  <rect x="198" y="480" width="246" height="10" rx="5" fill="rgba(255,255,255,0.09)"/>
  <rect x="166" y="458" width="14" height="14" rx="7" fill="#5CF3C7"/>
  <rect x="604" y="234" width="560" height="420" rx="24" fill="rgba(255,255,255,0.03)" stroke="rgba(163,191,225,0.12)"/>
  <rect x="636" y="270" width="150" height="16" rx="8" fill="rgba(255,255,255,0.15)"/>
  <rect x="636" y="320" width="496" height="92" rx="20" fill="rgba(255,255,255,0.03)"/>
  <rect x="664" y="348" width="132" height="14" rx="7" fill="rgba(255,255,255,0.18)"/>
  <rect x="664" y="382" width="404" height="10" rx="5" fill="rgba(255,255,255,0.08)"/>
  <rect x="1072" y="346" width="36" height="36" rx="18" fill="rgba(33,210,255,0.12)" stroke="rgba(33,210,255,0.3)"/>
  <rect x="636" y="436" width="496" height="92" rx="20" fill="rgba(255,255,255,0.03)"/>
  <rect x="664" y="464" width="144" height="14" rx="7" fill="rgba(255,255,255,0.18)"/>
  <rect x="664" y="498" width="392" height="10" rx="5" fill="rgba(255,255,255,0.08)"/>
  <rect x="1072" y="462" width="36" height="36" rx="18" fill="rgba(92,243,199,0.12)" stroke="rgba(92,243,199,0.3)"/>
  <rect x="636" y="552" width="496" height="70" rx="18" fill="rgba(255,255,255,0.03)"/>
  <rect x="664" y="578" width="120" height="12" rx="6" fill="rgba(255,255,255,0.18)"/>
  <rect x="814" y="578" width="112" height="12" rx="6" fill="url(#warm)"/>
  <rect x="166" y="454" width="14" height="14" rx="7" fill="#5CF3C7"/>
  <rect x="166" y="688" width="998" height="180" rx="24" fill="rgba(255,255,255,0.03)" stroke="rgba(163,191,225,0.12)"/>
  <rect x="198" y="724" width="168" height="16" rx="8" fill="rgba(255,255,255,0.15)"/>
  <rect x="198" y="774" width="204" height="14" rx="7" fill="rgba(255,255,255,0.18)"/>
  <rect x="198" y="808" width="280" height="10" rx="5" fill="rgba(255,255,255,0.08)"/>
  <rect x="552" y="742" width="22" height="94" rx="11" fill="#203248"/>
  <rect x="590" y="702" width="22" height="134" rx="11" fill="#264A6D"/>
  <rect x="628" y="654" width="22" height="182" rx="11" fill="url(#accent)"/>
  <rect x="666" y="724" width="22" height="112" rx="11" fill="#2B5A84"/>
  <rect x="704" y="688" width="22" height="148" rx="11" fill="#315B7A"/>
  <rect x="790" y="742" width="318" height="24" rx="12" fill="rgba(255,255,255,0.05)"/>
  <rect x="790" y="790" width="282" height="20" rx="10" fill="rgba(255,255,255,0.05)"/>
  <rect x="790" y="836" width="236" height="20" rx="10" fill="rgba(255,255,255,0.05)"/>
  <rect x="1188" y="234" width="92" height="634" rx="22" fill="rgba(255,255,255,0.03)" stroke="rgba(163,191,225,0.1)"/>
  <rect x="1212" y="266" width="44" height="44" rx="22" fill="rgba(33,210,255,0.12)" stroke="rgba(33,210,255,0.28)"/>
  <rect x="1212" y="340" width="44" height="44" rx="22" fill="rgba(255,142,56,0.12)" stroke="rgba(255,142,56,0.26)"/>
  <rect x="1212" y="414" width="44" height="44" rx="22" fill="rgba(92,243,199,0.12)" stroke="rgba(92,243,199,0.26)"/>
</svg>
