<svg xmlns="http://www.w3.org/2000/svg" viewBox="0 0 1280 860" role="img" aria-label="Factory Operations App SIGNALS product screen">
  <defs>
    <linearGradient id="chrome" x1="0" x2="1" y1="0" y2="1"><stop stop-color="#fbf7ef"/><stop offset=".55" stop-color="#f8f4ea"/><stop offset="1" stop-color="#dcfce7"/></linearGradient>
    <linearGradient id="brandGlow" x1="0" x2="1" y1="0" y2="1"><stop stop-color="#67e8f9"/><stop offset="1" stop-color="#2563eb"/></linearGradient>
    <filter id="shadow" x="-12%" y="-12%" width="124%" height="124%"><feDropShadow dx="0" dy="28" stdDeviation="26" flood-color="#0f172a" flood-opacity=".16"/></filter>
  </defs>
  <rect width="1280" height="860" rx="46" fill="url(#chrome)"/>
  <rect x="0" y="0" width="1280" height="82" rx="46" fill="#eef6ff"/>
  <circle cx="42" cy="42" r="9" fill="#d5d0c8"/><circle cx="70" cy="42" r="9" fill="#d5d0c8"/><circle cx="98" cy="42" r="9" fill="#d5d0c8"/>
  <text x="1080" y="49" font-family="Inter, Segoe UI, Arial, sans-serif" font-size="18" font-weight="950" fill="#706a61" letter-spacing="6">Factory Operations App</text>
  <g filter="url(#shadow)">
    <rect x="54" y="124" width="1172" height="660" rx="38" fill="#fffaf0" stroke="#dad4c9"/>
    <rect x="86" y="156" width="802" height="76" rx="24" fill="#ffffff" stroke="#e0dbd1"/>
    
    <g transform="translate(122 194) scale(0.86)">
      <rect x="-20" y="-20" width="40" height="40" rx="12" fill="#061b3a"/>
      <path d="M-10 1C-8-10 7-14 14-5" fill="none" stroke="#83f4ff" stroke-width="4.2" stroke-linecap="round"/>
      <path d="M10-1C8 10-7 14-14 5" fill="none" stroke="#2f6bff" stroke-width="4.2" stroke-linecap="round"/>
      <path d="M-12-7C-3-18 14-14 16 0" fill="none" stroke="#dff7ff" stroke-opacity=".28" stroke-width="2" stroke-linecap="round"/>
      <path d="M12 7C3 18-14 14-16 0" fill="none" stroke="#dff7ff" stroke-opacity=".2" stroke-width="2" stroke-linecap="round"/>
    </g>
    <text x="154" y="190" font-family="Inter, Segoe UI, Arial, sans-serif" font-size="18" font-weight="950" fill="#0f172a">SUPERMEGA.dev</text>
    <text x="154" y="214" font-family="Inter, Segoe UI, Arial, sans-serif" font-size="10" font-weight="900" letter-spacing="4" fill="#756f66">Factory Operations App</text>
    <text x="86" y="284" font-family="Inter, Segoe UI, Arial, sans-serif" font-size="17" font-weight="950" letter-spacing="4" fill="#087f5b">SIGNALS</text>
    <text x="86" y="342" font-family="Inter, Segoe UI, Arial, sans-serif" font-size="44" font-weight="950" fill="#0f172a">Signals to action</text>
    <text x="86" y="374" font-family="Inter, Segoe UI, Arial, sans-serif" font-size="16" font-weight="760" fill="#756f66">Meter readings and asset notes become reviewed exceptions, not raw noise.</text>
    
      <rect x="86" y="392" width="176" height="86" rx="21" fill="#ffffff" stroke="#ded8cd"/>
      <text x="106" y="426" font-size="12" font-weight="950" fill="#087f5b" letter-spacing="3">READINGS</text>
      <text x="106" y="459" font-size="30" font-weight="950" fill="#0f172a">128</text>
      <rect x="288" y="392" width="176" height="86" rx="21" fill="#ffffff" stroke="#ded8cd"/>
      <text x="308" y="426" font-size="12" font-weight="950" fill="#087f5b" letter-spacing="3">MAPPED</text>
      <text x="308" y="459" font-size="30" font-weight="950" fill="#0f172a">21</text>
      <rect x="490" y="392" width="176" height="86" rx="21" fill="#ffffff" stroke="#ded8cd"/>
      <text x="510" y="426" font-size="12" font-weight="950" fill="#087f5b" letter-spacing="3">ALERTS</text>
      <text x="510" y="459" font-size="30" font-weight="950" fill="#0f172a">4</text>
      <rect x="692" y="392" width="176" height="86" rx="21" fill="#052e23" stroke="#052e23"/>
      <text x="712" y="426" font-size="12" font-weight="950" fill="#7dd3fc" letter-spacing="3">SAFE</text>
      <text x="712" y="459" font-size="30" font-weight="950" fill="#ffffff">On</text>
    
      <rect x="86" y="522" width="802" height="48" rx="15" fill="#ffffff" stroke="#e2ded5"/>
      <text x="110" y="552" font-size="16" font-weight="850" fill="#0f172a">Energy spike above baseline</text>
      <text x="596" y="552" font-size="14" font-weight="850" fill="#756f66">Utility</text>
      <text x="712" y="552" font-size="14" font-weight="850" fill="#756f66">Meter</text>
      <rect x="826" y="534" width="44" height="24" rx="12" fill="#dcfce7"/>
      <text x="837" y="551" font-size="9" font-weight="950" fill="#087f5b">Inspect</text>
      <rect x="86" y="584" width="802" height="48" rx="15" fill="#ffffff" stroke="#e2ded5"/>
      <text x="110" y="614" font-size="16" font-weight="850" fill="#0f172a">Compressor reading missing</text>
      <text x="596" y="614" font-size="14" font-weight="850" fill="#756f66">Maint.</text>
      <text x="712" y="614" font-size="14" font-weight="850" fill="#756f66">Asset</text>
      <rect x="826" y="596" width="44" height="24" rx="12" fill="#eef2ff"/>
      <text x="837" y="613" font-size="9" font-weight="950" fill="#087f5b">Verify</text>
      <rect x="86" y="646" width="802" height="48" rx="15" fill="#ffffff" stroke="#e2ded5"/>
      <text x="110" y="676" font-size="16" font-weight="850" fill="#0f172a">Water meter photo uploaded</text>
      <text x="596" y="676" font-size="14" font-weight="850" fill="#756f66">Admin</text>
      <text x="712" y="676" font-size="14" font-weight="850" fill="#756f66">Image</text>
      <rect x="826" y="658" width="44" height="24" rx="12" fill="#eef2ff"/>
      <text x="837" y="675" font-size="9" font-weight="950" fill="#087f5b">Extract</text>
    
      <rect x="936" y="190" width="172" height="64" rx="20" fill="#dcfce7" stroke="#ded8cd"/>
      <circle cx="964" cy="222" r="10" fill="#087f5b" opacity=".9"/>
      <text x="986" y="227" font-size="16" font-weight="950" fill="#0f172a">Meters</text>
      <rect x="936" y="282" width="172" height="64" rx="20" fill="#ffffff" stroke="#ded8cd"/>
      <circle cx="964" cy="314" r="10" fill="#087f5b" opacity=".9"/>
      <text x="986" y="319" font-size="16" font-weight="950" fill="#0f172a">Assets</text>
      <rect x="936" y="374" width="172" height="64" rx="20" fill="#ffffff" stroke="#ded8cd"/>
      <circle cx="964" cy="406" r="10" fill="#087f5b" opacity=".9"/>
      <text x="986" y="411" font-size="16" font-weight="950" fill="#0f172a">Exceptions</text>
    <rect x="936" y="522" width="172" height="86" rx="22" fill="#052e23" />
    <text x="962" y="558" font-family="Inter, Segoe UI, Arial, sans-serif" font-size="12" font-weight="950" letter-spacing="3" fill="#7dd3fc">NEXT</text>
    <text x="962" y="592" font-family="Inter, Segoe UI, Arial, sans-serif" font-size="26" font-weight="950" fill="#fff">Approve</text>
  </g>
</svg>